<svg width="443" height="223" viewBox="0 0 443 223" fill="none" xmlns="http://www.w3.org/2000/svg">
<path d="M45.9286 90.277V81.427H86.2846V90.277H45.9286ZM32.7126 96L58.0236 58.24H74.4256L99.9726 96H83.7476L61.8586 62.193H70.6496L48.9376 96H32.7126ZM156.799 96H142.639V67.09H156.799V96ZM143.229 81.073L143.347 83.905C143.229 84.731 142.835 85.6947 142.167 86.796C141.537 87.8973 140.652 89.038 139.512 90.218C138.371 91.398 136.975 92.4993 135.323 93.522C133.671 94.5053 131.783 95.3117 129.659 95.941C127.535 96.5703 125.175 96.885 122.579 96.885C119.983 96.885 117.524 96.6097 115.204 96.059C112.883 95.5477 110.818 94.6823 109.009 93.463C107.199 92.2437 105.783 90.6113 104.761 88.566C103.738 86.4813 103.227 83.8853 103.227 80.778V67.09H117.387V79.303C117.387 81.4663 117.741 83.138 118.449 84.318C119.196 85.498 120.356 86.324 121.93 86.796C123.503 87.2287 125.529 87.445 128.007 87.445C130.327 87.445 132.471 87.1107 134.438 86.442C136.444 85.734 138.194 84.8883 139.689 83.905C141.223 82.9217 142.403 81.9777 143.229 81.073ZM160.637 67.09H195.329V75.94H160.637V67.09ZM170.903 58.24H185.063V96H170.903V58.24ZM252.731 96H238.571V67.09H252.731V96ZM239.161 81.073L239.279 83.905C239.161 84.731 238.768 85.6947 238.099 86.796C237.47 87.8973 236.585 89.038 235.444 90.218C234.304 91.398 232.907 92.4993 231.255 93.522C229.603 94.5053 227.715 95.3117 225.591 95.941C223.467 96.5703 221.107 96.885 218.511 96.885C215.915 96.885 213.457 96.6097 211.136 96.059C208.816 95.5477 206.751 94.6823 204.941 93.463C203.132 92.2437 201.716 90.6113 200.693 88.566C199.671 86.4813 199.159 83.8853 199.159 80.778V67.09H213.319V79.303C213.319 81.4663 213.673 83.138 214.381 84.318C215.129 85.498 216.289 86.324 217.862 86.796C219.436 87.2287 221.461 87.445 223.939 87.445C226.26 87.445 228.404 87.1107 230.37 86.442C232.376 85.734 234.127 84.8883 235.621 83.905C237.155 82.9217 238.335 81.9777 239.161 81.073ZM258.044 67.09H272.204V96H258.044V67.09ZM293.444 66.205C295.765 66.205 298.007 66.4607 300.17 66.972C302.333 67.444 304.261 68.27 305.952 69.45C307.683 70.63 309.059 72.2427 310.082 74.288C311.105 76.3333 311.616 78.9097 311.616 82.017V96H297.456V83.787C297.456 80.837 296.689 78.7523 295.155 77.533C293.621 76.2743 290.848 75.645 286.836 75.645C284.712 75.645 282.647 75.881 280.641 76.353C278.674 76.825 276.904 77.3953 275.331 78.064C273.758 78.6933 272.519 79.3227 271.614 79.952L271.496 77.71C271.653 77.002 272.184 76.0187 273.089 74.76C274.033 73.462 275.39 72.164 277.16 70.866C278.93 69.568 281.152 68.4667 283.827 67.562C286.541 66.6573 289.747 66.205 293.444 66.205ZM332.148 66.205C334.469 66.205 336.711 66.4607 338.874 66.972C341.037 67.444 342.965 68.27 344.656 69.45C346.387 70.63 347.763 72.2427 348.786 74.288C349.809 76.3333 350.32 78.9097 350.32 82.017V96H336.16V83.787C336.16 80.837 335.393 78.7523 333.859 77.533C332.325 76.2743 329.552 75.645 325.54 75.645C323.416 75.645 321.351 75.881 319.345 76.353C317.378 76.825 315.608 77.3953 314.035 78.064C312.462 78.6933 311.223 79.3227 310.318 79.952L310.2 77.12C310.357 76.53 310.947 75.645 311.97 74.465C312.993 73.285 314.428 72.0657 316.277 70.807C318.165 69.5483 320.427 68.4667 323.062 67.562C325.737 66.6573 328.765 66.205 332.148 66.205ZM355.648 67.09H369.808V96H355.648V67.09ZM391.048 66.205C393.368 66.205 395.61 66.4607 397.774 66.972C399.937 67.444 401.864 68.27 403.556 69.45C405.286 70.63 406.663 72.2427 407.686 74.288C408.708 76.3333 409.22 78.9097 409.22 82.017V96H395.06V83.787C395.06 80.837 394.293 78.7523 392.759 77.533C391.225 76.2743 388.452 75.645 384.44 75.645C382.316 75.645 380.251 75.881 378.245 76.353C376.278 76.825 374.508 77.3953 372.935 78.064C371.361 78.6933 370.122 79.3227 369.218 79.952L369.1 77.71C369.257 77.002 369.788 76.0187 370.693 74.76C371.637 73.462 372.994 72.164 374.764 70.866C376.534 69.568 378.756 68.4667 381.431 67.562C384.145 66.6573 387.35 66.205 391.048 66.205ZM79.2511 129.24C84.5611 129.24 88.9468 129.751 92.4081 130.774C95.8694 131.797 98.5834 133.193 100.55 134.963C102.517 136.733 103.893 138.759 104.68 141.04C105.506 143.282 105.919 145.642 105.919 148.12C105.919 150.598 105.467 152.978 104.562 155.259C103.657 157.501 102.163 159.507 100.078 161.277C98.0328 163.047 95.2991 164.443 91.8771 165.466C88.4944 166.489 84.2858 167 79.2511 167H36.7711V129.24H79.2511ZM51.5211 155.2H78.6611C80.8638 155.2 82.7321 155.062 84.2661 154.787C85.8001 154.472 87.0194 154.02 87.9241 153.43C88.8681 152.84 89.5368 152.112 89.9301 151.247C90.3628 150.342 90.5791 149.3 90.5791 148.12C90.5791 146.94 90.3628 145.917 89.9301 145.052C89.5368 144.147 88.8681 143.4 87.9241 142.81C87.0194 142.22 85.8001 141.787 84.2661 141.512C82.7321 141.197 80.8638 141.04 78.6611 141.04H51.5211V155.2ZM112.1 138.09H126.26V167H112.1V138.09ZM141.482 149.005C138.925 149.005 136.585 149.241 134.461 149.713C132.337 150.185 130.527 150.755 129.033 151.424C127.538 152.053 126.417 152.683 125.67 153.312L125.552 150.48C125.67 149.654 125.984 148.69 126.496 147.589C127.007 146.448 127.695 145.288 128.561 144.108C129.426 142.889 130.488 141.768 131.747 140.745C133.005 139.683 134.441 138.837 136.054 138.208C137.706 137.539 139.515 137.205 141.482 137.205V149.005ZM185.229 156.616H199.153C198.799 158.897 197.658 160.884 195.731 162.575C193.843 164.266 191.07 165.584 187.412 166.528C183.793 167.433 179.172 167.885 173.547 167.885C167.608 167.885 162.475 167.413 158.148 166.469C153.861 165.525 150.557 163.932 148.236 161.69C145.915 159.448 144.755 156.419 144.755 152.604C144.755 148.828 145.876 145.819 148.118 143.577C150.399 141.296 153.684 139.663 157.971 138.68C162.258 137.697 167.45 137.205 173.547 137.205C179.526 137.205 184.423 137.736 188.238 138.798C192.053 139.86 194.866 141.591 196.675 143.99C198.484 146.35 199.35 149.556 199.271 153.607H159.151C159.348 154.63 159.898 155.574 160.803 156.439C161.747 157.304 163.183 158.012 165.11 158.563C167.077 159.074 169.692 159.33 172.957 159.33C176.34 159.33 179.113 159.094 181.276 158.622C183.479 158.15 184.796 157.481 185.229 156.616ZM172.957 145.76C168.788 145.76 165.602 146.212 163.399 147.117C161.236 148.022 159.957 148.926 159.564 149.831H185.524C185.249 148.808 184.147 147.884 182.22 147.058C180.293 146.193 177.205 145.76 172.957 145.76ZM225.416 167.826C221.168 167.826 217.392 167.236 214.088 166.056C210.784 164.837 208.169 163.086 206.241 160.805C204.353 158.524 203.409 155.77 203.409 152.545C203.409 149.162 204.353 146.33 206.241 144.049C208.169 141.768 210.784 140.057 214.088 138.916C217.392 137.775 221.168 137.205 225.416 137.205C230.136 137.205 234.207 137.854 237.629 139.152C241.091 140.411 243.746 142.2 245.594 144.521C247.482 146.802 248.426 149.477 248.426 152.545C248.426 154.826 247.895 156.911 246.833 158.799C245.771 160.648 244.237 162.26 242.231 163.637C240.225 164.974 237.806 166.017 234.974 166.764C232.142 167.472 228.956 167.826 225.416 167.826ZM230.726 158.858C233.716 158.858 236.449 158.681 238.927 158.327C241.445 157.934 243.451 157.285 244.945 156.38C246.479 155.475 247.246 154.197 247.246 152.545C247.246 150.854 246.479 149.556 244.945 148.651C243.451 147.746 241.445 147.117 238.927 146.763C236.449 146.409 233.716 146.232 230.726 146.232C226.714 146.232 223.607 146.763 221.404 147.825C219.202 148.848 218.1 150.421 218.1 152.545C218.1 153.922 218.592 155.082 219.575 156.026C220.559 156.97 221.994 157.678 223.882 158.15C225.77 158.622 228.052 158.858 230.726 158.858ZM247.246 138.09H261.406V167H248.072C248.072 167 247.994 166.548 247.836 165.643C247.718 164.738 247.581 163.44 247.423 161.749C247.305 160.058 247.246 158.071 247.246 155.79V138.09ZM266.744 138.09H280.904V167H266.744V138.09ZM302.144 137.205C304.465 137.205 306.707 137.461 308.87 137.972C311.034 138.444 312.961 139.27 314.652 140.45C316.383 141.63 317.76 143.243 318.782 145.288C319.805 147.333 320.316 149.91 320.316 153.017V167H306.156V154.787C306.156 151.837 305.389 149.752 303.855 148.533C302.321 147.274 299.548 146.645 295.536 146.645C293.412 146.645 291.347 146.881 289.341 147.353C287.375 147.825 285.605 148.395 284.031 149.064C282.458 149.693 281.219 150.323 280.314 150.952L280.196 148.71C280.354 148.002 280.885 147.019 281.789 145.76C282.733 144.462 284.09 143.164 285.86 141.866C287.63 140.568 289.853 139.467 292.527 138.562C295.241 137.657 298.447 137.205 302.144 137.205ZM340.848 137.205C343.169 137.205 345.411 137.461 347.574 137.972C349.738 138.444 351.665 139.27 353.356 140.45C355.087 141.63 356.464 143.243 357.486 145.288C358.509 147.333 359.02 149.91 359.02 153.017V167H344.86V154.787C344.86 151.837 344.093 149.752 342.559 148.533C341.025 147.274 338.252 146.645 334.24 146.645C332.116 146.645 330.051 146.881 328.045 147.353C326.079 147.825 324.309 148.395 322.735 149.064C321.162 149.693 319.923 150.323 319.018 150.952L318.9 148.12C319.058 147.53 319.648 146.645 320.67 145.465C321.693 144.285 323.129 143.066 324.977 141.807C326.865 140.548 329.127 139.467 331.762 138.562C334.437 137.657 337.466 137.205 340.848 137.205ZM364.053 156.616H377.092C377.643 157.639 378.685 158.347 380.219 158.74C381.792 159.133 384.034 159.33 386.945 159.33C389.187 159.33 390.839 159.212 391.901 158.976C393.002 158.74 393.71 158.425 394.025 158.032C394.379 157.639 394.556 157.226 394.556 156.793C394.556 156.124 394.182 155.672 393.435 155.436C392.727 155.161 391.508 155.003 389.777 154.964C388.046 154.885 385.667 154.846 382.638 154.846C379.767 154.846 377.19 154.728 374.909 154.492C372.667 154.217 370.759 153.804 369.186 153.253C367.613 152.663 366.413 151.857 365.587 150.834C364.761 149.811 364.348 148.533 364.348 146.999C364.348 145.111 364.958 143.538 366.177 142.279C367.396 140.981 369.048 139.978 371.133 139.27C373.218 138.523 375.617 137.992 378.331 137.677C381.084 137.362 383.956 137.205 386.945 137.205C391.901 137.205 395.952 137.716 399.099 138.739C402.246 139.722 404.566 141.06 406.061 142.751C407.556 144.442 408.283 146.35 408.244 148.474H395.559C395.126 147.451 394.3 146.743 393.081 146.35C391.901 145.957 389.856 145.76 386.945 145.76C384.192 145.76 382.186 145.976 380.927 146.409C379.708 146.802 379.098 147.451 379.098 148.356C379.098 148.946 379.393 149.398 379.983 149.713C380.612 149.988 381.773 150.185 383.464 150.303C385.195 150.421 387.712 150.48 391.016 150.48C393.297 150.48 395.52 150.559 397.683 150.716C399.886 150.873 401.852 151.208 403.583 151.719C405.353 152.23 406.749 153.017 407.772 154.079C408.795 155.141 409.306 156.596 409.306 158.445C409.306 160.687 408.382 162.516 406.533 163.932C404.724 165.309 402.147 166.312 398.804 166.941C395.461 167.57 391.508 167.885 386.945 167.885C382.972 167.885 379.609 167.629 376.856 167.118C374.142 166.607 371.92 165.938 370.189 165.112C368.458 164.247 367.121 163.322 366.177 162.339C365.272 161.316 364.663 160.313 364.348 159.33C364.073 158.307 363.974 157.403 364.053 156.616Z" fill="#080477"/>
<rect x="5" y="5" width="433" height="213" rx="15" stroke="#080477" stroke-width="10"/>
<rect x="5" y="25" width="433" height="174" rx="15" stroke="#080477" stroke-width="10"/>
</svg>
