<svg width="67" height="67" viewBox="0 0 67 67" fill="none" xmlns="http://www.w3.org/2000/svg">
<mask id="mask0_15_79" style="mask-type:alpha" maskUnits="userSpaceOnUse" x="0" y="0" width="67" height="67">
<circle cx="33.5" cy="33.5" r="33.5" fill="#080477"/>
</mask>
<g mask="url(#mask0_15_79)">
<ellipse cx="34" cy="38" rx="43" ry="45" fill="#080477"/>
<path d="M-1.5 14.8149C-24.7918 1.12202 40 70.4094 -17 39.4094C-15.8333 45.5761 4.83556 83.646 12.8356 86.046C22.8356 89.046 42.3356 77.546 50.3356 73.546C58.3356 69.546 63.1831 54.3475 68.3356 50.546C100.5 26.8149 79.5 30.3149 64.5 25.8149C60.0352 24.4755 44 19.4149 42 25.8149C39.5 33.8149 63.5 52.4094 40 57.9094C13.7863 64.0445 28.5 32.4515 -1.5 14.8149Z" fill="#EDD382" stroke="#EDD382"/>
</g>
</svg>
